<?xml version="1.0" encoding="utf-8"?>
<!-- Generator: Adobe Illustrator 19.2.0, SVG Export Plug-In . SVG Version: 6.00 Build 0)  -->
<svg version="1.1" id="Livello_1" xmlns="http://www.w3.org/2000/svg" xmlns:xlink="http://www.w3.org/1999/xlink" x="0px" y="0px"
	 viewBox="0 0 400 259.8" style="enable-background:new 0 0 400 259.8;" xml:space="preserve">
<style type="text/css">
	.st0{fill:#101128;}
	.st1{fill:#D2DCDC;}
	.st2{opacity:0.71;fill:#535656;}
	.st3{fill:#231F20;}
	.st4{fill:#EBF2F2;}
	.st5{fill:#636968;}
	.st6{fill:none;stroke:#D2DCDC;stroke-miterlimit:10;}
	.st7{fill:#9EC5CB;}
	.st8{fill:#949E9F;}
</style>
<rect class="st0" width="400" height="259.8"/>
<g>
	<polygon class="st1" points="400,259.8 4.3,259.8 1.7,259.8 27.9,232.7 71,195.1 95.1,175.8 134.2,149.4 212.3,128.6 224.8,100.3 
		256.5,86.5 292.3,74.2 330.9,63 362.6,56.7 389.7,52.2 400,50.3 	"/>
	<path class="st2" d="M60.3,204.6c2.7,3.4,6.9,5.7,11.6,5.7c8.1,0,14.7-6.6,14.7-14.7c0-3.8-1.4-7.2-3.8-9.8L60.3,204.6z"/>
	<path class="st3" d="M400,49.4c-49.6,5.9-98.9,18.3-147,37.1c-47.2,18.5-93.3,43.1-137.1,73.2C48.9,205.7,7.9,250.8,0,259.8h4.3
		C27.4,233.9,174.3,79.3,400,52.6V49.4z"/>
	<g>
		<polygon class="st4" points="136.1,32.8 132.7,41.1 130.8,51.4 130.8,63 131.9,75.9 136.8,103.1 156.1,110.9 176.4,114.6 
			193.8,113.7 210.9,108.9 224.2,101.4 233,93.4 237.8,89.7 241.6,84.5 237.7,65.8 232.6,44.5 228.3,32.8 222.1,23.4 212.3,14 
			202,7.9 189.6,4.2 179.3,3.8 167.3,5.5 156,11.1 146.2,17.8 137.3,28.9 		"/>
		<polygon class="st4" points="150.9,108.8 151.3,110.2 140.8,126.4 132.3,151.7 129.7,162.9 134.1,171.6 140.5,175.6 146.1,176.2 
			148.1,184.8 149.4,189.5 150.1,190.8 155.1,192.7 166.5,195.6 176.8,194.5 182.5,192.4 192.6,196 203.5,197.5 213.5,196.4 
			226.4,190.5 224.9,175.2 230.2,177.9 236.3,178 244.3,174.8 249,167.1 248.3,155.2 244.3,142.2 239,131.3 233.5,123.5 
			222.8,114.6 212.3,107.6 201.8,112.1 194.8,113.8 179.5,114.6 163.5,112.4 154.3,110.2 		"/>
		<polygon class="st5" points="226.4,190.5 228.7,200.6 228.7,215.4 211,218 190.8,216.5 184.6,214.9 174.4,216.5 161.5,215.5 
			152.2,212.9 148.8,204 150.1,190.8 156.4,193 164.3,194.8 170.4,195.2 179.4,194.1 182.5,192.4 189.6,194.9 197.5,196.9 
			206.8,197.5 216.9,195.1 		"/>
		<polygon class="st5" points="226.9,98.8 229.3,110.2 229.2,118.5 216.2,110.2 212.3,107.6 221.9,103.7 		"/>
		<path class="st6" d="M180.4,193.1"/>
		<path class="st7" d="M205.9,45c-14.4,6.5-30.4,10.1-47.3,10.1c-9.4,0-18.5-1.1-27.2-3.2L130.8,63l3.7,31l0.9,4.2
			c10.7,3.2,22,5,33.7,5c16.5,0,32.3-3.5,46.5-9.7c0-0.7,0-1.4,0-2.1C215.6,74.9,212.1,59.2,205.9,45z"/>
		<path class="st8" d="M217.7,163.3c0,0,19.5,0.8,30.2-8.9l1,10.6l-2.1,5.9l-6.2,6l-8.1,1l-8.6-2.9l-4.7-6.9L217.7,163.3z"/>
		<path class="st8" d="M130.8,156.5c0,0,8.5,8.2,15,7.5l0.3,12.2h-5.3l-6.7-4.7l-3.3-6.6V156.5z"/>
		<path class="st8" d="M219.3,168.2c-39.6,5.5-73.3-0.8-73.3-0.8l-0.6,3.2c1,0.2,17.1,3.1,40,3.1c10.3,0,22-0.6,34.4-2.3
			L219.3,168.2z"/>
		<polygon class="st8" points="239.7,56.4 253.1,58.2 264.9,66.7 269.8,81.6 266.9,96.1 259.4,103.8 244.5,112 230.6,119.7 
			229.2,116.1 229.2,106.2 232.5,105 245.5,97.9 254,90.6 256.1,82.7 253.9,75.9 249.5,72.9 242.6,71.1 240.2,70.5 237.3,63.8 		"/>
		<path class="st3" d="M250.8,161.7c0-0.3,0-0.5-0.1-0.8l0-0.3c-0.1-1.3-2.5-24.9-20-41.8c1.3-9.8-1.4-18.7-1.5-19.1l0,0
			c4.6-3.7,9-8,13.1-13l1-1.2l-0.3-1.5c-0.3-1.4-6.3-34.3-10.6-44.6c-6.9-22.2-27.1-37.1-50.4-37.1c-29.1,0-52.7,23.6-52.8,52.7
			c0,1.2-0.3,15.8,5.9,47.1l0.3,1.4l1.2,0.7c0.4,0.2,5.2,3.1,12.9,6c-15.2,21.2-20.1,45-20.6,47.6l-0.3,4.2
			c0.4,8.9,7.6,16,16.5,16.3c0.6,4.6,1.5,8.7,2.8,12.1l0.4,1.1c-3.3,13.4,3.3,22.8,3.3,22.8c13.5,5.2,27.1,4,35.5,2.3
			c20.9,6.4,43.4,0.1,43.4,0.1c1.6-11.5-2.1-26-2.1-26l-1.8-12.6c2.2,1,4.7,1.6,7.2,1.6c9.2,0,16.7-7.3,17.1-16.3L250.8,161.7z
			 M138.1,101.5c-6.3-32-5.8-46.4-5.8-46.4c0-27.4,22.2-49.6,49.6-49.6c22.3,0,41.2,14.7,47.4,35c0,0,0,0,0,0
			c4.3,9.9,10.5,44.1,10.5,44.1C196.1,136.6,138.1,101.5,138.1,101.5z M227.7,116.1c-3.5-2.9-7.5-5.6-12.1-7.7
			c3.7-1.9,7.3-4.1,10.7-6.6C226.9,104.2,228.1,110.1,227.7,116.1z M153.5,211.8c-1.2-2.1-4.5-9.4-2.5-18.7
			c3.2,1.4,10.1,3.8,18.6,3.8c3.2,0,6.7-0.4,10.2-1.3c-1.7,9.3,1.2,15.9,2.6,18.6C174.8,215.3,164.1,215.6,153.5,211.8z
			 M227.4,214.4c-5.4,1.7-25.3,4.4-41.9-1.6c-1.2-2.1-4.3-8.7-2-18.3c0,0,0,0,0.1,0c7.4,3.2,14.1,4.4,19.9,4.4c11.1,0,19-4.1,22-6
			C226.2,196.2,228.1,205.9,227.4,214.4z M233.7,176.6c-6,0-11.2-3.9-13.1-9.2l0,0c0,0,0-0.1-0.1-0.3c0-0.1-0.1-0.2-0.1-0.3
			c-1.2-3.7-7.3-22.3-10.5-24.9l-2.1,2.5c1.3,1.3,5.1,9.9,9.5,23.4l1.5,3.4c1.1,1.9,2.5,3.5,4.1,4.9l0,0l1.9,13.4
			c0,0-17.1,12.8-41.2,1.6l-1.4-11.2c0,0-4.3,0.8-9.6-0.7l-0.9,3.1c2.9,0.8,5.6,1,7.6,1l0.9,8.9c-15.6,4.6-29.6-2.8-29.6-2.8
			c-1.6-4.2-2.5-9.2-2.9-14.3l1-27.2c0.9-7.1,1.9-12,1.9-12l-3.1-0.7c0,0.2-1.1,5.1-2,12.3l0,0l0,0c-0.9,7.2-1.8,17.8-1,27.7
			c-7.2-0.5-12.9-6.5-12.9-13.8c0-0.8,0.1-1.7,0.2-2.5h0c0,0,0-0.1,0.1-0.3c0,0,0-0.1,0-0.1c0.6-3.2,5.5-26.5,20.6-47.2l0,0
			c7.8,2.6,18,5,29.3,5c0,0,0,0,0,0c10.7,0,20.7-2.1,29.9-6.1l0,0c32.2,13.5,35.7,50.7,35.7,50.7l0,0c0.1,0.6,0.1,1.2,0.1,1.8
			C247.6,170.4,241.4,176.6,233.7,176.6z"/>
		<polygon class="st5" points="239.7,57.7 226.4,57.7 223.5,65 225.6,70.3 227.1,72.2 241.6,71.1 238.1,67.2 237.6,61.8 		"/>
		<g>
			<path class="st1" d="M250,58c0,0,0.3,0.1,0.6,0.4c0.2,0.1,0.4,0.3,0.6,0.5c0.2,0.2,0.5,0.5,0.7,0.8c0.2,0.3,0.4,0.7,0.7,1.1
				c0.2,0.4,0.4,0.9,0.5,1.4c0.1,0.5,0.2,1,0.2,1.6c0,0.5-0.1,1.1-0.1,1.6c-0.1,0.5-0.2,1.1-0.4,1.6c-0.2,0.5-0.4,1-0.7,1.4
				c-0.3,0.4-0.5,0.8-0.8,1.2c-0.3,0.3-0.6,0.6-0.9,0.9c-0.3,0.3-0.6,0.5-0.8,0.7c-0.3,0.2-0.5,0.3-0.7,0.4
				c-0.4,0.2-0.6,0.3-0.6,0.3s0.1-0.3,0.2-0.7c0.1-0.2,0.1-0.5,0.2-0.7c0.1-0.3,0.2-0.6,0.3-0.9c0.1-0.3,0.2-0.7,0.4-1
				c0.1-0.4,0.2-0.8,0.3-1.1c0.1-0.4,0.2-0.8,0.3-1.2c0.1-0.4,0.2-0.8,0.3-1.2c0.1-0.4,0.1-0.8,0.2-1.2c0-0.4,0.1-0.8,0.1-1.2
				c0-0.4,0-0.8,0-1.1c0-0.4,0-0.7-0.1-1.1c-0.1-0.7-0.2-1.3-0.2-1.7C250,58.3,250,58,250,58z"/>
		</g>
		<g>
			<path class="st1" d="M240.2,56.5c0,0,0.3,0.1,0.7,0.3c0.2,0.1,0.4,0.3,0.7,0.5c0.3,0.2,0.5,0.4,0.8,0.8c0.3,0.3,0.5,0.7,0.8,1.1
				c0.2,0.4,0.5,0.8,0.6,1.3c0.2,0.5,0.3,1,0.4,1.5c0.1,0.5,0.1,1.1,0,1.6c-0.1,0.5-0.1,1.1-0.3,1.6c-0.2,0.5-0.3,1-0.5,1.4
				c-0.2,0.4-0.5,0.9-0.7,1.2c-0.3,0.4-0.5,0.7-0.8,1c-0.2,0.3-0.5,0.5-0.8,0.7c-0.2,0.2-0.5,0.4-0.6,0.5c-0.4,0.3-0.6,0.4-0.6,0.4
				s0-0.3,0.1-0.7c0-0.2,0.1-0.5,0.2-0.8c0.1-0.3,0.1-0.6,0.2-1c0.1-0.3,0.2-0.7,0.3-1.1c0.1-0.4,0.1-0.8,0.2-1.2
				c0.1-0.4,0.1-0.8,0.2-1.2c0.1-0.4,0.1-0.8,0.1-1.2c0-0.4,0-0.8,0-1.2c0-0.4,0-0.8,0-1.2c0-0.4-0.1-0.8-0.1-1.1
				c-0.1-0.4-0.1-0.7-0.2-1c-0.1-0.7-0.3-1.2-0.4-1.7C240.3,56.7,240.2,56.5,240.2,56.5z"/>
		</g>
		<g>
			<path class="st1" d="M260.4,62.6c0,0,0.2,0.2,0.5,0.5c0.1,0.2,0.3,0.4,0.4,0.7c0.2,0.3,0.3,0.6,0.4,1c0.1,0.4,0.2,0.8,0.3,1.3
				c0,0.5,0.1,1,0,1.5c0,0.5-0.1,1-0.3,1.6c-0.1,0.5-0.4,1-0.6,1.5c-0.3,0.5-0.5,1-0.9,1.4c-0.3,0.4-0.7,0.8-1.1,1.1
				c-0.4,0.3-0.8,0.6-1.1,0.9c-0.4,0.2-0.8,0.4-1.1,0.6c-0.3,0.2-0.7,0.3-1,0.4c-0.3,0.1-0.6,0.2-0.8,0.2c-0.4,0.1-0.7,0.1-0.7,0.1
				s0.1-0.2,0.4-0.6c0.1-0.2,0.3-0.4,0.5-0.6c0.2-0.2,0.4-0.5,0.6-0.8c0.2-0.3,0.4-0.6,0.7-0.9c0.2-0.3,0.4-0.7,0.7-1
				c0.2-0.3,0.4-0.7,0.7-1c0.2-0.3,0.4-0.7,0.6-1.1c0.2-0.4,0.4-0.7,0.5-1.1c0.1-0.4,0.3-0.7,0.4-1.1c0.1-0.4,0.2-0.7,0.3-1.1
				c0.1-0.4,0.2-0.7,0.2-1c0.2-0.7,0.2-1.3,0.3-1.7C260.3,62.8,260.4,62.6,260.4,62.6z"/>
		</g>
		<g>
			<path class="st1" d="M267.7,72.5c0,0,0.1,0.3,0.1,0.7c0,0.2,0,0.5,0,0.8c0,0.3-0.1,0.7-0.2,1.1c-0.1,0.4-0.2,0.8-0.4,1.2
				c-0.2,0.4-0.4,0.9-0.8,1.3c-0.3,0.4-0.7,0.8-1.1,1.2c-0.4,0.4-0.9,0.7-1.3,1c-0.5,0.2-1,0.5-1.5,0.7c-0.5,0.2-1,0.3-1.5,0.4
				c-0.5,0.1-1,0.1-1.4,0.1c-0.4,0-0.9,0-1.3-0.1c-0.4,0-0.7-0.1-1-0.2c-0.3-0.1-0.6-0.2-0.8-0.2c-0.4-0.2-0.7-0.3-0.7-0.3
				s0.2-0.1,0.6-0.3c0.2-0.1,0.4-0.2,0.7-0.3c0.3-0.1,0.6-0.2,0.9-0.4c0.3-0.1,0.7-0.3,1-0.4c0.4-0.2,0.7-0.3,1.1-0.5
				c0.4-0.1,0.7-0.4,1.1-0.5c0.4-0.2,0.7-0.4,1.1-0.6c0.3-0.2,0.7-0.4,1-0.7c0.3-0.2,0.7-0.5,0.9-0.7c0.3-0.2,0.6-0.5,0.9-0.7
				c0.3-0.3,0.5-0.5,0.7-0.8c0.5-0.5,0.8-0.9,1.1-1.3C267.5,72.7,267.7,72.5,267.7,72.5z"/>
		</g>
		<g>
			<path class="st1" d="M269.8,84.6c0,0,0,0.3-0.2,0.7c-0.1,0.2-0.2,0.5-0.3,0.8c-0.2,0.3-0.3,0.6-0.6,0.9c-0.2,0.3-0.6,0.6-0.9,0.9
				c-0.4,0.3-0.8,0.6-1.2,0.8c-0.4,0.3-0.9,0.5-1.5,0.6c-0.5,0.2-1.1,0.2-1.6,0.3c-0.5,0-1.1,0.1-1.6,0c-0.5-0.1-1-0.1-1.5-0.3
				c-0.5-0.1-0.9-0.3-1.3-0.5c-0.4-0.2-0.8-0.4-1.1-0.6c-0.3-0.2-0.6-0.4-0.9-0.6c-0.2-0.2-0.4-0.4-0.6-0.5
				c-0.3-0.3-0.5-0.5-0.5-0.5s0.3,0,0.7,0c0.2,0,0.5,0,0.8,0c0.3,0,0.6,0,1,0c0.4,0,0.7,0,1.1,0.1c0.4,0,0.8,0,1.2,0
				c0.4,0,0.8,0,1.2,0c0.4,0,0.8-0.1,1.2-0.1c0.4-0.1,0.8-0.1,1.2-0.2c0.4-0.1,0.8-0.1,1.1-0.3c0.4-0.1,0.7-0.2,1.1-0.3
				c0.3-0.1,0.7-0.2,1-0.4c0.6-0.2,1.2-0.5,1.6-0.7C269.6,84.7,269.8,84.6,269.8,84.6z"/>
		</g>
		<g>
			<path class="st1" d="M266.8,96.5c0,0-0.2,0.2-0.5,0.5c-0.2,0.1-0.4,0.3-0.7,0.5c-0.3,0.2-0.6,0.4-1,0.5c-0.4,0.2-0.8,0.3-1.3,0.4
				c-0.5,0.1-1,0.1-1.5,0.1c-0.5,0-1-0.1-1.6-0.2c-0.5-0.1-1-0.3-1.6-0.5c-0.5-0.3-1-0.5-1.4-0.8c-0.4-0.3-0.9-0.6-1.2-1
				c-0.3-0.4-0.7-0.7-0.9-1.1c-0.2-0.4-0.5-0.7-0.7-1.1c-0.2-0.3-0.3-0.7-0.4-1c-0.1-0.3-0.2-0.6-0.3-0.8c-0.1-0.4-0.2-0.7-0.2-0.7
				s0.3,0.1,0.6,0.3c0.2,0.1,0.4,0.2,0.7,0.4c0.2,0.2,0.5,0.3,0.8,0.5c0.3,0.2,0.6,0.4,0.9,0.6c0.3,0.2,0.7,0.4,1,0.6
				c0.3,0.2,0.7,0.4,1.1,0.6c0.4,0.2,0.7,0.3,1.1,0.5c0.4,0.1,0.7,0.3,1.1,0.4c0.4,0.1,0.7,0.3,1.1,0.3c0.4,0.1,0.7,0.2,1.1,0.3
				c0.4,0.1,0.7,0.1,1,0.2c0.7,0.1,1.3,0.1,1.7,0.2C266.5,96.5,266.8,96.5,266.8,96.5z"/>
		</g>
		<g>
			<path class="st1" d="M258.7,105.2c0,0-0.2,0.1-0.7,0.3c-0.2,0.1-0.5,0.1-0.8,0.2c-0.3,0-0.7,0.1-1.1,0c-0.4,0-0.8-0.1-1.3-0.2
				c-0.4-0.1-0.9-0.3-1.4-0.5c-0.5-0.2-0.9-0.5-1.4-0.8c-0.4-0.3-0.8-0.7-1.2-1.1c-0.3-0.4-0.7-0.8-1-1.3c-0.3-0.5-0.5-0.9-0.7-1.4
				c-0.2-0.5-0.3-0.9-0.4-1.4c-0.1-0.4-0.1-0.9-0.2-1.2c0-0.4,0-0.7,0-1.1c0-0.3,0.1-0.6,0.1-0.8c0.1-0.4,0.1-0.7,0.1-0.7
				s0.2,0.2,0.4,0.6c0.1,0.2,0.3,0.4,0.4,0.6c0.1,0.3,0.3,0.5,0.5,0.8c0.2,0.3,0.4,0.6,0.6,0.9c0.2,0.3,0.5,0.6,0.7,1
				c0.2,0.3,0.5,0.6,0.7,1c0.2,0.3,0.5,0.6,0.8,0.9c0.3,0.3,0.6,0.6,0.8,0.9c0.3,0.3,0.6,0.5,0.9,0.8c0.3,0.3,0.6,0.5,0.9,0.7
				c0.3,0.2,0.6,0.4,0.9,0.6c0.6,0.4,1.1,0.6,1.5,0.9C258.4,105.1,258.7,105.2,258.7,105.2z"/>
		</g>
		<g>
			<path class="st1" d="M251.1,109.5c0,0-0.2,0.1-0.7,0.3c-0.2,0.1-0.5,0.1-0.8,0.2c-0.3,0-0.7,0.1-1.1,0c-0.4,0-0.8-0.1-1.3-0.2
				c-0.4-0.1-0.9-0.3-1.4-0.5c-0.5-0.2-0.9-0.5-1.4-0.8c-0.4-0.3-0.8-0.7-1.2-1.1c-0.3-0.4-0.7-0.8-1-1.3c-0.3-0.5-0.5-0.9-0.7-1.4
				c-0.2-0.5-0.3-0.9-0.4-1.4c-0.1-0.4-0.1-0.9-0.2-1.2c0-0.4,0-0.7,0-1.1c0-0.3,0.1-0.6,0.1-0.8c0.1-0.4,0.1-0.7,0.1-0.7
				s0.2,0.2,0.4,0.6c0.1,0.2,0.3,0.4,0.4,0.6c0.1,0.3,0.3,0.5,0.5,0.8c0.2,0.3,0.4,0.6,0.6,0.9c0.2,0.3,0.5,0.6,0.7,1
				c0.2,0.3,0.5,0.6,0.7,1c0.2,0.3,0.5,0.6,0.8,0.9c0.3,0.3,0.6,0.6,0.8,0.9c0.3,0.3,0.6,0.5,0.9,0.8c0.3,0.3,0.6,0.5,0.9,0.7
				c0.3,0.2,0.6,0.4,0.9,0.6c0.6,0.4,1.1,0.6,1.5,0.9C250.9,109.4,251.1,109.5,251.1,109.5z"/>
		</g>
		<g>
			<path class="st1" d="M241.6,114.6c0,0-0.2,0.1-0.7,0.2c-0.2,0-0.5,0.1-0.8,0.1c-0.3,0-0.7,0-1.1-0.1c-0.4-0.1-0.8-0.2-1.3-0.4
				c-0.4-0.2-0.9-0.4-1.3-0.7c-0.4-0.3-0.8-0.6-1.2-1c-0.4-0.4-0.7-0.8-1-1.3c-0.3-0.5-0.6-0.9-0.8-1.4c-0.2-0.5-0.4-1-0.5-1.5
				c-0.1-0.5-0.2-1-0.2-1.4c0-0.4,0-0.9,0-1.3c0-0.4,0.1-0.7,0.1-1c0.1-0.3,0.1-0.6,0.2-0.8c0.1-0.4,0.2-0.7,0.2-0.7
				s0.2,0.2,0.4,0.6c0.1,0.2,0.2,0.4,0.3,0.7c0.1,0.3,0.3,0.6,0.4,0.9c0.2,0.3,0.3,0.7,0.5,1c0.2,0.3,0.4,0.7,0.5,1.1
				c0.2,0.4,0.4,0.7,0.6,1.1c0.2,0.4,0.4,0.7,0.6,1c0.2,0.3,0.5,0.7,0.7,1c0.3,0.3,0.5,0.6,0.8,0.9c0.2,0.3,0.5,0.5,0.8,0.8
				c0.3,0.2,0.5,0.5,0.8,0.7c0.5,0.5,1,0.8,1.3,1.1C241.4,114.4,241.6,114.6,241.6,114.6z"/>
		</g>
		<path class="st3" d="M266.1,65.8c-7.9-11.4-23.6-10.7-23.6-10.7L225,56.7l-0.8,1.3c-4.5,7.2-1.2,13.2,1.2,15.4l1,0.9l17.7-1.5
			c3.4,0.5,9.4,2.4,10.4,9c1.5,9.5-12.4,16.9-16.4,18.5c-4,1.6-10.6,5.9-10.6,5.9l2,2.5c0,0,6.3-4,9.9-5.4c0.2-0.1,20.5-8.6,18.4-22
			c-1.5-9.6-12-12.1-16.1-11.9l-0.9-1.2c-2.9-3.9-1-7.8-0.9-7.9l1.2-2.2c4,0.1,16.8,1.3,22.5,9.5c7,10.1,5.5,23.8,0.1,30.6
			c-3,3.8-12.6,8.4-20.3,12.1c-7.7,3.7-12.2,5.9-14.1,8.2l2.5,2.1c3.7-4.4,28.5-12.7,34.5-20.3C272.1,92.6,274,77.2,266.1,65.8z
			 M227.6,71.1c0,0-5-4.5-0.7-11.3l10-0.9c0,0-3,5.7,1.2,11.3L227.6,71.1z"/>
		<g>
			<path class="st4" d="M195.9,55.4c0,0-0.6,1.6-1.7,3.8c-0.6,1.1-1.2,2.4-2,3.7c-0.4,0.7-0.8,1.4-1.2,2c-0.4,0.7-0.9,1.4-1.3,2.1
				c-0.5,0.7-0.9,1.4-1.3,2c-0.4,0.7-0.9,1.3-1.3,1.9c-0.9,1.3-1.7,2.4-2.5,3.4c-1.5,1.9-2.7,3.1-2.7,3.1s0.6-1.6,1.7-3.8
				c0.6-1.1,1.2-2.4,2-3.7c0.4-0.7,0.8-1.4,1.2-2c0.4-0.7,0.9-1.4,1.3-2.1c0.5-0.7,0.9-1.4,1.3-2c0.4-0.7,0.9-1.3,1.3-1.9
				c0.9-1.3,1.7-2.4,2.5-3.4C194.7,56.6,195.9,55.4,195.9,55.4z"/>
		</g>
		<g>
			<path class="st4" d="M197.5,64.7c0,0-0.6,1.6-1.7,3.8c-0.6,1.1-1.2,2.4-2,3.7c-0.4,0.7-0.8,1.4-1.2,2c-0.4,0.7-0.9,1.4-1.3,2.1
				c-0.5,0.7-0.9,1.4-1.3,2c-0.4,0.7-0.9,1.3-1.3,1.9c-0.9,1.3-1.7,2.4-2.5,3.4c-1.5,1.9-2.7,3.1-2.7,3.1s0.6-1.6,1.7-3.8
				c0.6-1.1,1.2-2.4,2-3.7c0.4-0.7,0.8-1.4,1.2-2c0.4-0.7,0.9-1.4,1.3-2.1c0.5-0.7,0.9-1.4,1.3-2c0.4-0.7,0.9-1.3,1.3-1.9
				c0.9-1.3,1.7-2.4,2.5-3.4C196.3,65.9,197.5,64.7,197.5,64.7z"/>
		</g>
		<path class="st8" d="M160.1,156.5c0,0,20.6,2.7,31.4,0v-25.9c-10.8,2.7-31.4,0-31.4,0V156.5z"/>
	</g>
	<circle class="st2" cx="368.4" cy="116.1" r="14.7"/>
	<path class="st2" d="M323.9,259.8H400v-80.9c-9.8-8.8-22.8-14.1-37-14.1c-30.7,0-55.5,24.9-55.5,55.5
		C307.4,235.8,313.7,249.7,323.9,259.8z"/>
	<circle class="st2" cx="386.5" cy="71.1" r="4.4"/>
</g>
</svg>
