<?xml version="1.0" encoding="utf-8"?>
<!-- Generator: Adobe Illustrator 19.0.0, SVG Export Plug-In . SVG Version: 6.00 Build 0)  -->
<svg version="1.1" id="Livello_1" xmlns="http://www.w3.org/2000/svg" xmlns:xlink="http://www.w3.org/1999/xlink" x="0px" y="0px"
	 viewBox="0 0 50 50" style="enable-background:new 0 0 50 50;" xml:space="preserve">
<style type="text/css">
	.st0{fill:#FFFFFF;}
</style>
<g id="XMLID_2_">
	<g id="XMLID_3_">
		<path id="XMLID_4_" class="st0" d="M26.9,1.7C12.4,0.5,0.5,12.6,1.7,27c1,11.6,10.6,20.9,22.3,21.4c12.3,0.6,22.6-8.4,24.3-20
			c0.2-1,0.2-2.1,0.2-3.2C48.5,13,39,2.6,26.9,1.7z M25,2.7c5.7,0,10.9,2.1,14.8,5.7c-0.5-0.1-1-0.2-1.5-0.2c-3.4-0.2-6.1,1.2-8.7,3
			c-4.1,2.9-8.8,7.9-12,11.8c-0.1,0.1-0.2,0-0.1-0.1c3.3-4.6,6.3-9.3,9.8-14.2C27,8.3,24.4,6.9,23,8.3C22.8,8.5,11.2,26.5,5.4,35.6
			c-1.6-3-2.6-7.1-2.6-10.6C2.7,12.7,12.7,2.7,25,2.7z M25,47.3c-6.9,0-12.4-3.1-17.2-8.3c0.1-0.1,9.3-13.9,15-19.9
			c2.8-3,9.6-9.5,14.7-9.8c1.8-0.1,2.7,1.1,2.2,2.8c-0.5,1.5-1.2,3.1-2.1,4.4c-3,4.2-6.3,8.3-9.3,12.5c-0.9,1.2-1.6,2.6-2,4
			c-1.3,4.3,1.3,7.7,5.8,7.5c1.6-0.1,3.3-0.5,4.7-1.3c3.5-2.1,6.4-4.1,9.2-6.9C43,41.1,34.7,47.3,25,47.3z M46.6,30.3
			c-1.3,1.4-8.4,7.1-12.4,8.7c-0.6,0.2-1.2,0.4-1.8,0.4c-1,0.1-1.9,0-2.3-0.9c-0.4-0.9-0.4-2.3,0-3.3c0.4-1.3,1.3-2.5,2.1-3.6
			c2.6-3.6,5.3-7,7.8-10.7c1.3-1.9,2.5-3.9,3.2-6c0.3-0.8,0.4-1.6,0.3-2.3c2.4,3.5,3.8,7.8,3.8,12.4C47.3,26.9,47.1,28.5,46.6,30.3z
			"/>
	</g>
</g>
</svg>
