<?xml version="1.0" encoding="utf-8"?>
<!-- Generator: Adobe Illustrator 19.2.0, SVG Export Plug-In . SVG Version: 6.00 Build 0)  -->
<svg version="1.1" id="Livello_1" xmlns="http://www.w3.org/2000/svg" xmlns:xlink="http://www.w3.org/1999/xlink" x="0px" y="0px"
	 viewBox="0 0 150 111.9" style="enable-background:new 0 0 150 111.9;" xml:space="preserve">
<style type="text/css">
	.st0{fill:#3E567E;stroke:#FFFFFF;stroke-width:4.2347;stroke-miterlimit:10;}
</style>
<g id="XMLID_1_">
	<path id="XMLID_9_" class="st0" d="M5.9,85.6c0,0,45.4,36.6,84.1,4.6c0,0-3.6-15-9.5-17.8C74.5,69.6,35,56.9,5.9,85.6z"/>
	<path id="XMLID_8_" class="st0" d="M144.1,85.8c0,0-45.4-36.6-84.1-4.6c0,0,3.6,15,9.5,17.8C75.5,101.8,115,114.4,144.1,85.8z"/>
	<path id="XMLID_7_" class="st0" d="M41.3,22.4c0,0-13.7,56.7,31.7,78c0,0,12-9.7,12-16.2S79.6,36.5,41.3,22.4z"/>
	<path id="XMLID_6_" class="st0" d="M109.6,22.4c0,0,13.7,56.7-31.7,78c0,0-12-9.7-12-16.2S71.3,36.5,109.6,22.4z"/>
	<path id="XMLID_5_" class="st0" d="M73.5,5c0,0-36.6,45.4-4.6,84.1c0,0,15-3.6,17.8-9.5C89.5,73.6,102.1,34.1,73.5,5z"/>
	<path id="XMLID_4_" class="st0" d="M28.9,44.4c0,0-1,57.4,49,62.2c0,0,15.2-12.6,13-18.8C88.7,81.6,69.7,44.7,28.9,44.4z"/>
	<path id="XMLID_3_" class="st0" d="M121.3,44.5c0,0-58,6.2-62.7,56.2c0,0,13.1,8,19.3,5.8C84.1,104.4,120.9,85.4,121.3,44.5z"/>
</g>
</svg>
