<?xml version="1.0" encoding="utf-8"?>
<!-- Generator: Adobe Illustrator 19.0.0, SVG Export Plug-In . SVG Version: 6.00 Build 0)  -->
<svg version="1.1" id="Livello_1" xmlns="http://www.w3.org/2000/svg" xmlns:xlink="http://www.w3.org/1999/xlink" x="0px" y="0px"
	 viewBox="0 0 200 200" style="enable-background:new 0 0 200 200;" xml:space="preserve">
<style type="text/css">
	.st0{fill:#1D1E2A;}
</style>
<g id="XMLID_3_">
	<path id="XMLID_9_" class="st0" d="M155.2,40.6"/>
	<path id="XMLID_8_" class="st0" d="M153.4,103.7c0.1,0.9-0.2,1.9-0.9,2.5l-30,30c-0.6,0.6-1.3,0.9-2.1,0.9c0,0,0,0,0,0
		c-1.5,0-2.8-1.1-3-2.6l-3.2-23.3c-4.6,3-9.4,6.1-14.3,9c-0.5,0.3-1,0.4-1.6,0.4c-0.8,0-1.6-0.3-2.1-0.9l-16.3-16.3
		c-1-1-1.2-2.5-0.5-3.7c3-4.9,6-9.8,9-14.3l-23.3-3.2c-1.1-0.2-2.1-0.9-2.5-2c-0.4-1.1-0.1-2.3,0.7-3.1l30-30
		c0.6-0.6,1.3-0.9,2.1-0.9c0.1,0,0.3,0,0.4,0l21.7,3c13.4-13.3,25.6-21.2,35.6-25.9C138.2,12.8,119.8,6.6,100,6.6
		C48.5,6.6,6.6,48.5,6.6,100c0,23.4,8.7,44.8,23,61.3c13.9-19.5,31.5-43.9,34.8-47.1c2.9-2.9,6.7-4.4,10.7-4.4
		c4.1,0,7.9,1.6,10.7,4.4c5.9,5.9,5.9,15.5,0,21.5c-3.2,3.2-27.6,20.8-47.1,34.8c16.4,14.3,37.9,23,61.3,23
		c51.5,0,93.4-41.9,93.4-93.4c0-20-6.3-38.5-17-53.7c-4.6,10-12.5,22.2-25.9,35.7L153.4,103.7z"/>
	<path id="XMLID_14_" class="st0" d="M177.4,43.9c5.5-12.8,5.6-21.6,5.5-24.2c-0.1-1.6-1.3-2.8-2.9-2.9c-0.3,0-0.7,0-1.2,0
		c-3.5,0-11.7,0.6-23.1,5.5C140,11.1,120.8,4.4,100,4.4C47.2,4.4,4.4,47.2,4.4,100c0,24.2,9,46.3,23.8,63.1c0.5,0.6,1,1.1,1.5,1.7
		c0.4-0.6,0.9-1.2,1.3-1.9c13.4-18.8,31.7-44.1,34.8-47.2c5.1-5.1,13.3-5.1,18.3,0c5.1,5.1,5.1,13.3,0,18.3
		c-3.1,3.1-28.5,21.4-47.3,34.8c-0.6,0.4-1.2,0.9-1.9,1.3c0.6,0.5,1.1,1,1.7,1.5c16.8,14.9,39,23.9,63.2,23.9
		c52.8,0,95.6-42.8,95.6-95.6C195.6,79.1,188.8,59.7,177.4,43.9z M157.8,23.9c11.7-4.8,19.8-4.9,22.1-4.8c0.4,0,0.8,0.4,0.8,0.8
		c0.1,2.4,0,10.4-4.8,22.1c-0.3,0.8-0.7,1.6-1,2.4c-4.5,10.1-12.5,22.7-26.5,36.6c-0.2,0.2-0.3,0.4-0.2,0.7l3.1,22.4
		c0,0.3-0.1,0.5-0.2,0.7l-30,30c-0.5,0.5-1.3,0.2-1.4-0.5l-3.5-25.5c-0.1-0.6-0.8-0.9-1.3-0.6c-5,3.4-10.3,6.8-16,10.2
		c-0.3,0.2-0.7,0.1-1-0.1l-8.2-8.2l-8.2-8.2c-0.3-0.3-0.3-0.7-0.1-1c3.4-5.7,6.8-11.1,10.2-16c0.3-0.5,0-1.2-0.6-1.3l-25.5-3.5
		c-0.7-0.1-1-0.9-0.5-1.4l30-30c0.2-0.2,0.4-0.3,0.7-0.2l22.4,3.1c0.3,0,0.5-0.1,0.7-0.2c13.9-14,26.5-21.9,36.6-26.4
		C156.2,24.5,157,24.2,157.8,23.9z M100,193.4c-23.5,0-44.9-8.7-61.3-23c19.5-13.9,43.9-31.5,47.1-34.8c5.9-5.9,5.9-15.5,0-21.5
		c-2.9-2.9-6.7-4.4-10.7-4.4c-4.1,0-7.9,1.6-10.7,4.4c-3.2,3.2-20.8,27.6-34.8,47.1c-14.3-16.4-23-37.8-23-61.3
		C6.6,48.5,48.5,6.6,100,6.6c19.8,0,38.2,6.2,53.4,16.8c-10,4.6-22.2,12.5-35.6,25.9l-21.7-3c-0.1,0-0.3,0-0.4,0
		c-0.8,0-1.6,0.3-2.1,0.9l-30,30c-0.8,0.8-1.1,2-0.7,3.1c0.4,1.1,1.3,1.9,2.5,2l23.3,3.2c-3,4.6-6.1,9.4-9,14.3
		c-0.7,1.2-0.5,2.7,0.5,3.7l16.3,16.3c0.6,0.6,1.3,0.9,2.1,0.9c0.5,0,1.1-0.1,1.6-0.4c5-3,9.8-6,14.3-9l3.2,23.3
		c0.2,1.5,1.5,2.6,3,2.6c0,0,0,0,0,0c0.8,0,1.6-0.3,2.1-0.9l30-30c0.7-0.7,1-1.6,0.9-2.5l-3-21.7c13.4-13.4,21.2-25.6,25.9-35.7
		c10.7,15.2,17,33.7,17,53.7C193.4,151.5,151.5,193.4,100,193.4z"/>
	<polygon id="XMLID_4_" class="st0" points="154.5,23.9 139,32.9 121.7,47 117.5,50.4 95.3,47.7 63.9,78.1 63.9,80.6 65.7,81.6 
		90,84.7 80,101.9 97.8,119.4 114.7,109.4 119,135 119.9,135.6 122.7,135 152.1,105.1 149.2,81.7 159.3,71 167.9,59.4 176,44.2 
		180.7,50.4 186.9,62.7 191.6,75.8 193.4,87.6 194.4,100 193.4,115.1 192.2,120.2 188.4,133.7 182.2,146.9 176.3,155.6 166,167.9 
		152.3,178.6 137.3,187.1 121.4,192.1 109,194.2 98.5,194.2 84.9,193.4 69.4,189.5 53.9,182.7 42.3,174.9 36.8,170 84.9,135 
		87.9,130.5 89.2,124.3 88.2,119.1 84.2,113.7 78.3,111.1 70.6,111.1 65.9,114.3 63.4,116.6 58.5,123.1 29.5,162.7 24.1,155.9 
		14.3,140.3 8.8,124.8 5.2,105.3 6.6,85.7 9.8,70.8 15.8,56.9 20.8,47.7 29.1,37 40.7,26.1 53.5,17.5 67.3,11 83.1,6.6 98.8,5.3 
		116,6.6 127.1,9.3 137.2,13.1 144.9,16.8 153.2,21.7 155.2,23.1 	"/>
</g>
</svg>
