<?xml version="1.0" encoding="utf-8"?>
<!-- Generator: Adobe Illustrator 19.0.0, SVG Export Plug-In . SVG Version: 6.00 Build 0)  -->
<svg version="1.1" id="Livello_1" xmlns="http://www.w3.org/2000/svg" xmlns:xlink="http://www.w3.org/1999/xlink" x="0px" y="0px"
	 viewBox="0 0 200 200" style="enable-background:new 0 0 200 200;" xml:space="preserve">
<style type="text/css">
	.st0{fill:none;stroke:#1D1E2A;stroke-miterlimit:10;}
	.st1{fill:#1D1E2A;stroke:#1D1E2A;stroke-miterlimit:10;}
</style>
<g id="XMLID_3_">
	<path id="XMLID_9_" class="st0" d="M155.2,42.1"/>
	<path id="XMLID_14_" class="st1" d="M177.4,43.9c5.5-12.8,5.6-21.6,5.5-24.2c-0.1-1.6-1.3-2.8-2.9-2.9c-0.3,0-0.7,0-1.2,0
		c-3.5,0-11.7,0.6-23.1,5.5C140,11.1,120.8,4.4,100,4.4C47.2,4.4,4.4,47.2,4.4,100c0,24.2,9,46.3,23.8,63.1c0.5,0.6,1,1.1,1.5,1.7
		c0.4-0.6,0.9-1.2,1.3-1.9c13.4-18.8,31.7-44.1,34.8-47.2c5.1-5.1,13.3-5.1,18.3,0c5.1,5.1,5.1,13.3,0,18.3
		c-3.1,3.1-28.5,21.4-47.3,34.8c-0.6,0.4-1.2,0.9-1.9,1.3c0.6,0.5,1.1,1,1.7,1.5c16.8,14.9,39,23.9,63.2,23.9
		c52.8,0,95.6-42.8,95.6-95.6C195.6,79.1,188.8,59.7,177.4,43.9z M157.8,23.9c11.7-4.8,19.8-4.9,22.1-4.8c0.4,0,0.8,0.4,0.8,0.8
		c0.1,2.4,0,10.4-4.8,22.1c-0.3,0.8-0.7,1.6-1,2.4c-4.5,10.1-12.5,22.7-26.5,36.6c-0.2,0.2-0.3,0.4-0.2,0.7l3.1,22.4
		c0,0.3-0.1,0.5-0.2,0.7l-30,30c-0.5,0.5-1.3,0.2-1.4-0.5l-3.5-25.5c-0.1-0.6-0.8-0.9-1.3-0.6c-5,3.4-10.3,6.8-16,10.2
		c-0.3,0.2-0.7,0.1-1-0.1l-8.2-8.2l-8.2-8.2c-0.3-0.3-0.3-0.7-0.1-1c3.4-5.7,6.8-11.1,10.2-16c0.3-0.5,0-1.2-0.6-1.3l-25.5-3.5
		c-0.7-0.1-1-0.9-0.5-1.4l30-30c0.2-0.2,0.4-0.3,0.7-0.2l22.4,3.1c0.3,0,0.5-0.1,0.7-0.2c13.9-14,26.5-21.9,36.6-26.4
		C156.2,24.5,157,24.2,157.8,23.9z M100,193.4c-23.5,0-44.9-8.7-61.3-23c19.5-13.9,43.9-31.5,47.1-34.8c5.9-5.9,5.9-15.5,0-21.5
		c-2.9-2.9-6.7-4.4-10.7-4.4c-4.1,0-7.9,1.6-10.7,4.4c-3.2,3.2-20.8,27.6-34.8,47.1c-14.3-16.4-23-37.8-23-61.3
		C6.6,48.5,48.5,6.6,100,6.6c19.8,0,38.2,6.2,53.4,16.8c-10,4.6-22.2,12.5-35.6,25.9l-21.7-3c-0.1,0-0.3,0-0.4,0
		c-0.8,0-1.6,0.3-2.1,0.9l-30,30c-0.8,0.8-1.1,2-0.7,3.1c0.4,1.1,1.3,1.9,2.5,2l23.3,3.2c-3,4.6-6.1,9.4-9,14.3
		c-0.7,1.2-0.5,2.7,0.5,3.7l16.3,16.3c0.6,0.6,1.3,0.9,2.1,0.9c0.5,0,1.1-0.1,1.6-0.4c5-3,9.8-6,14.3-9l3.2,23.3
		c0.2,1.5,1.5,2.6,3,2.6c0,0,0,0,0,0c0.8,0,1.6-0.3,2.1-0.9l30-30c0.7-0.7,1-1.6,0.9-2.5l-3-21.7c13.4-13.4,21.2-25.6,25.9-35.7
		c10.7,15.2,17,33.7,17,53.7C193.4,151.5,151.5,193.4,100,193.4z"/>
</g>
</svg>
