<?xml version="1.0" encoding="utf-8"?>
<!-- Generator: Adobe Illustrator 19.0.0, SVG Export Plug-In . SVG Version: 6.00 Build 0)  -->
<svg version="1.1" id="Livello_1" xmlns="http://www.w3.org/2000/svg" xmlns:xlink="http://www.w3.org/1999/xlink" x="0px" y="0px"
	 viewBox="0 0 500 500" style="enable-background:new 0 0 500 500;" xml:space="preserve">
<style type="text/css">
	.st0{fill:none;stroke:#FFFFFF;stroke-width:5;stroke-miterlimit:10;}
</style>
<g id="XMLID_245_">
	<path id="XMLID_265_" class="st0" d="M322.2,332.1h-146c-3.6,0-6.5-2.9-6.5-6.5V182.6c0-3.6,2.9-6.5,6.5-6.5h146
		c3.6,0,6.5,2.9,6.5,6.5v142.9C328.7,329.1,325.8,332.1,322.2,332.1z"/>
	<ellipse id="XMLID_264_" class="st0" cx="249.2" cy="271.1" rx="38.6" ry="37.8"/>
	<line id="XMLID_263_" class="st0" x1="170.7" y1="209" x2="329.7" y2="209"/>
	<ellipse id="XMLID_262_" class="st0" cx="249.2" cy="271.1" rx="22.4" ry="22"/>
	<path id="XMLID_267_" class="st0" d="M310.6,197.9h-25c-0.7,0-1.3-0.6-1.3-1.3v-8.5c0-0.7,0.6-1.3,1.3-1.3h25
		c0.7,0,1.3,0.6,1.3,1.3v8.5C311.9,197.3,311.3,197.9,310.6,197.9z"/>
	<rect id="XMLID_268_" x="188.3" y="168.1" class="st0" width="27.2" height="7"/>
</g>
</svg>
