<?xml version="1.0" encoding="utf-8"?>
<!-- Generator: Adobe Illustrator 19.2.0, SVG Export Plug-In . SVG Version: 6.00 Build 0)  -->
<svg version="1.1" id="Livello_1" xmlns="http://www.w3.org/2000/svg" xmlns:xlink="http://www.w3.org/1999/xlink" x="0px" y="0px"
	 viewBox="0 0 164 169" style="enable-background:new 0 0 164 169;" xml:space="preserve">
<style type="text/css">
	.st0{fill:none;stroke:#FFFFFF;stroke-width:5;stroke-miterlimit:10;}
</style>
<g id="XMLID_245_">
	<path id="XMLID_265_" class="st0" d="M154.1,166.4H9.9c-3.6,0-6.4-2.9-6.4-6.4V18.8c0-3.6,2.9-6.4,6.4-6.4h144.2
		c3.6,0,6.4,2.9,6.4,6.4v141.1C160.5,163.5,157.6,166.4,154.1,166.4z"/>
	<ellipse id="XMLID_264_" class="st0" cx="82" cy="106.2" rx="38.1" ry="37.3"/>
	<line id="XMLID_263_" class="st0" x1="4.5" y1="44.9" x2="161.5" y2="44.9"/>
	<ellipse id="XMLID_262_" class="st0" cx="82" cy="106.2" rx="22.1" ry="21.7"/>
	<path id="XMLID_267_" class="st0" d="M142.6,33.9H118c-0.7,0-1.3-0.6-1.3-1.3v-8.4c0-0.7,0.6-1.3,1.3-1.3h24.7
		c0.7,0,1.3,0.6,1.3,1.3v8.4C143.9,33.3,143.3,33.9,142.6,33.9z"/>
	<rect id="XMLID_268_" x="21.9" y="4.5" class="st0" width="26.9" height="6.9"/>
</g>
</svg>
