<?xml version="1.0" encoding="utf-8"?>
<!-- Generator: Adobe Illustrator 19.2.0, SVG Export Plug-In . SVG Version: 6.00 Build 0)  -->
<svg version="1.1" id="Livello_1" xmlns="http://www.w3.org/2000/svg" xmlns:xlink="http://www.w3.org/1999/xlink" x="0px" y="0px"
	 viewBox="0 0 162.8 160.3" style="enable-background:new 0 0 162.8 160.3;" xml:space="preserve">
<style type="text/css">
	.st0{fill:none;stroke:#FFFFFF;stroke-width:5;stroke-miterlimit:10;}
</style>
<g id="XMLID_266_">
	<path id="XMLID_258_" class="st0" d="M151.5,156.8H11.3c-4.5,0-8.1-3.7-8.1-8.1V11.6c0-4.4,3.7-8.1,8.1-8.1h140.2
		c4.5,0,8.1,3.7,8.1,8.1v137.2C159.7,153.2,156,156.8,151.5,156.8z"/>
	<line id="XMLID_257_" class="st0" x1="2" y1="33" x2="159.7" y2="33"/>
	<ellipse id="XMLID_256_" class="st0" cx="42.1" cy="18.1" rx="5.9" ry="5.8"/>
	<line id="XMLID_255_" class="st0" x1="122.4" y1="34.2" x2="122.4" y2="155.6"/>
	<line id="XMLID_254_" class="st0" x1="2" y1="88.4" x2="122.4" y2="88.4"/>
	<g id="XMLID_269_">
		<rect id="XMLID_253_" x="15.2" y="47" class="st0" width="30.3" height="23"/>
		<line id="XMLID_252_" class="st0" x1="18.4" y1="70.2" x2="31.2" y2="51.9"/>
		<line id="XMLID_251_" class="st0" x1="43.5" y1="70.2" x2="30.8" y2="51.9"/>
		<line id="XMLID_250_" class="st0" x1="27.4" y1="56.9" x2="30.9" y2="60.9"/>
		<line id="XMLID_249_" class="st0" x1="30.9" y1="60.9" x2="34.1" y2="57.1"/>
	</g>
	<line id="XMLID_248_" class="st0" x1="56.7" y1="48.1" x2="114.1" y2="48.1"/>
	<line id="XMLID_247_" class="st0" x1="56.7" y1="67.9" x2="114.1" y2="67.9"/>
	<line id="XMLID_246_" class="st0" x1="56.6" y1="57.8" x2="114" y2="57.8"/>
	<line id="XMLID_259_" class="st0" x1="13.4" y1="79.1" x2="114.1" y2="79.1"/>
	<ellipse id="XMLID_260_" class="st0" cx="23.7" cy="18.1" rx="5.9" ry="5.8"/>
	<ellipse id="XMLID_261_" class="st0" cx="61.8" cy="18.1" rx="5.9" ry="5.8"/>
</g>
</svg>
