<?xml version="1.0" encoding="utf-8"?>
<!-- Generator: Adobe Illustrator 19.0.0, SVG Export Plug-In . SVG Version: 6.00 Build 0)  -->
<svg version="1.1" id="Livello_1" xmlns="http://www.w3.org/2000/svg" xmlns:xlink="http://www.w3.org/1999/xlink" x="0px" y="0px"
	 viewBox="0 0 500 500" style="enable-background:new 0 0 500 500;" xml:space="preserve">
<style type="text/css">
	.st0{fill:none;stroke:#FFFFFF;stroke-width:5;stroke-miterlimit:10;}
</style>
<g id="XMLID_266_">
	<path id="XMLID_258_" class="st0" d="M320,328.1H178.6c-4.5,0-8.2-3.7-8.2-8.2V181c0-4.5,3.7-8.2,8.2-8.2H320
		c4.5,0,8.2,3.7,8.2,8.2v139C328.2,324.5,324.5,328.1,320,328.1z"/>
	<line id="XMLID_257_" class="st0" x1="169.2" y1="202.7" x2="328.2" y2="202.7"/>
	<ellipse id="XMLID_256_" class="st0" cx="209.6" cy="187.6" rx="6" ry="5.9"/>
	<line id="XMLID_255_" class="st0" x1="290.6" y1="203.9" x2="290.6" y2="326.9"/>
	<line id="XMLID_254_" class="st0" x1="169.2" y1="258.8" x2="290.6" y2="258.8"/>
	<g id="XMLID_269_">
		<rect id="XMLID_253_" x="182.5" y="216.9" class="st0" width="30.6" height="23.3"/>
		<line id="XMLID_252_" class="st0" x1="185.7" y1="240.4" x2="198.6" y2="221.8"/>
		<line id="XMLID_251_" class="st0" x1="211.1" y1="240.4" x2="198.2" y2="221.8"/>
		<line id="XMLID_250_" class="st0" x1="194.8" y1="226.9" x2="198.3" y2="230.9"/>
		<line id="XMLID_249_" class="st0" x1="198.3" y1="230.9" x2="201.6" y2="227.1"/>
	</g>
	<line id="XMLID_248_" class="st0" x1="224.4" y1="218" x2="282.2" y2="218"/>
	<line id="XMLID_247_" class="st0" x1="224.4" y1="238" x2="282.2" y2="238"/>
	<line id="XMLID_246_" class="st0" x1="224.3" y1="227.8" x2="282.1" y2="227.8"/>
	<line id="XMLID_259_" class="st0" x1="180.7" y1="249.4" x2="282.2" y2="249.4"/>
	<ellipse id="XMLID_260_" class="st0" cx="191.1" cy="187.6" rx="6" ry="5.9"/>
	<ellipse id="XMLID_261_" class="st0" cx="229.5" cy="187.6" rx="6" ry="5.9"/>
</g>
</svg>
